<?xml version="1.0" encoding="UTF-8"?>
<!DOCTYPE svg PUBLIC "-//W3C//DTD SVG 1.1//EN" "http://www.w3.org/Graphics/SVG/1.1/DTD/svg11.dtd">
<svg xmlns="http://www.w3.org/2000/svg" version="1.1" width="128px" height="128px" style="shape-rendering:geometricPrecision; text-rendering:geometricPrecision; image-rendering:optimizeQuality; fill-rule:evenodd; clip-rule:evenodd" xmlns:xlink="http://www.w3.org/1999/xlink">
<g><path style="opacity:1" fill="#fdfdfd" d="M -0.5,-0.5 C 42.1667,-0.5 84.8333,-0.5 127.5,-0.5C 127.5,42.1667 127.5,84.8333 127.5,127.5C 84.8333,127.5 42.1667,127.5 -0.5,127.5C -0.5,84.8333 -0.5,42.1667 -0.5,-0.5 Z"/></g>
<g><path style="opacity:1" fill="#050505" d="M 47.5,74.5 C 48.0577,75.7899 49.0577,76.6232 50.5,77C 54.894,77.3028 59.2273,77.9695 63.5,79C 61.8333,79.3333 60.1667,79.6667 58.5,80C 59.6853,81.353 61.0186,82.5197 62.5,83.5C 62.1667,83.8333 61.8333,84.1667 61.5,84.5C 58.8255,83.1486 56.1588,82.8153 53.5,83.5C 54.8897,85.1694 55.2231,86.8361 54.5,88.5C 50.9716,85.2363 46.9716,82.7363 42.5,81C 43.8166,78.0635 43.8166,75.2301 42.5,72.5C 41.3908,68.9711 39.5575,68.6378 37,71.5C 36.5045,73.4727 36.3379,75.4727 36.5,77.5C 37.4866,80.1456 38.4866,82.8122 39.5,85.5C 42.9715,86.1347 46.3049,87.1347 49.5,88.5C 47.8827,88.6694 46.216,89.0028 44.5,89.5C 51.4381,94.6201 50.7715,95.6201 42.5,92.5C 42.3076,94.805 41.9743,97.1384 41.5,99.5C 38.6407,94.474 34.6407,90.6407 29.5,88C 30.3333,87.1667 31.1667,86.3333 32,85.5C 32.8099,81.6425 32.6433,77.9758 31.5,74.5C 31.6495,73.448 31.4828,72.448 31,71.5C 26.5196,67.2632 21.8529,63.2632 17,59.5C 10.3044,43.5913 13.8044,30.4246 27.5,20C 41.2678,10.3188 55.6011,9.31882 70.5,17C 74.1961,21.3583 77.8628,25.6917 81.5,30C 87.2778,30.0941 92.9445,30.7608 98.5,32C 103.553,37.1323 106.72,43.299 108,50.5C 114.629,58.4611 120.463,66.9611 125.5,76C 124.898,77.563 124.065,77.3963 123,75.5C 116.5,65 108,56.5 97.5,50C 95.0912,49.0653 92.5912,48.5653 90,48.5C 76.554,52.6614 63.054,56.828 49.5,61C 45.1718,65.144 44.5052,69.644 47.5,74.5 Z"/></g>
<g><path style="opacity:1" fill="#efefef" d="M 94.5,36.5 C 96.1042,37.287 96.7709,38.6203 96.5,40.5C 95.5,40.5 94.5,40.5 93.5,40.5C 93.4326,39.0413 93.7659,37.7079 94.5,36.5 Z"/></g>
<g><path style="opacity:1" fill="#f3f3f3" d="M 42.5,72.5 C 42.1382,75.8866 40.1382,77.5533 36.5,77.5C 36.3379,75.4727 36.5045,73.4727 37,71.5C 39.5575,68.6378 41.3908,68.9711 42.5,72.5 Z"/></g>
<g><path style="opacity:1" fill="#c4c4c4" d="M 42.5,72.5 C 43.8166,75.2301 43.8166,78.0635 42.5,81C 46.9716,82.7363 50.9716,85.2363 54.5,88.5C 55.2231,86.8361 54.8897,85.1694 53.5,83.5C 56.1588,82.8153 58.8255,83.1486 61.5,84.5C 61.8333,84.1667 62.1667,83.8333 62.5,83.5C 61.0186,82.5197 59.6853,81.353 58.5,80C 60.1667,79.6667 61.8333,79.3333 63.5,79C 59.2273,77.9695 54.894,77.3028 50.5,77C 49.0577,76.6232 48.0577,75.7899 47.5,74.5C 59.5046,74.3335 71.5046,74.5001 83.5,75C 93.3347,76.3888 102.501,79.5554 111,84.5C 113.446,90.7885 111.279,94.9552 104.5,97C 80.0485,104.832 55.3818,105.498 30.5,99C 14.5565,92.171 14.5565,85.3377 30.5,78.5C 31.4287,77.3112 31.762,75.9778 31.5,74.5C 32.6433,77.9758 32.8099,81.6425 32,85.5C 31.1667,86.3333 30.3333,87.1667 29.5,88C 34.6407,90.6407 38.6407,94.474 41.5,99.5C 41.9743,97.1384 42.3076,94.805 42.5,92.5C 50.7715,95.6201 51.4381,94.6201 44.5,89.5C 46.216,89.0028 47.8827,88.6694 49.5,88.5C 46.3049,87.1347 42.9715,86.1347 39.5,85.5C 38.4866,82.8122 37.4866,80.1456 36.5,77.5C 40.1382,77.5533 42.1382,75.8866 42.5,72.5 Z"/></g>
</svg>
